<svg viewBox="0 0 29 48" fill="none" xmlns="http://www.w3.org/2000/svg">
<path d="M9.64158 23.8999C8.38527 23.912 6.95081 24.4548 6.0622 25.7173C5.17947 26.9103 4.75097 29.1439 5.03188 30.5696L5.35346 32.2718L0 47.1732L6.30609 47.24L10.6012 35.1589C12.0787 34.7225 13.3147 33.6814 13.8711 31.6579C14.0866 30.72 14.1961 29.9668 14.157 29.1827C14.1225 28.432 13.909 27.4125 13.5413 26.6687C12.4444 24.7094 10.9418 24.0639 10.812 24.0578C10.4596 23.9509 10.0604 23.8959 9.64158 23.8999ZM9.29517 26.2236C9.78425 26.2069 10.3212 26.3544 10.9317 26.7534C11.8215 27.4018 12.3234 28.3207 12.3021 29.5896C12.2841 30.3557 12.2183 30.754 11.9964 31.258C11.2931 32.59 10.7629 33.287 8.93411 33.1219L4.23463 45.9996H2.42488L7.5007 32.3934C7.14004 32.0271 6.86708 31.4744 6.63149 30.795C6.46378 30.2164 6.49341 29.5 6.63149 28.7974C6.80256 27.8083 7.33947 27.0105 8.22919 26.5184C8.56327 26.3484 8.91478 26.2364 9.29517 26.2236Z"/>
<path d="M18.5081 23.4555C19.7641 23.4282 21.1919 22.868 22.0651 21.5948C22.9333 20.3912 23.3347 18.1525 23.0365 16.7303L22.6943 15.0322L27.8665 0.0669369L21.5601 0.0766018L17.4119 12.2089C15.9398 12.6632 14.7165 13.7193 14.1847 15.7494C13.9806 16.6898 13.8803 17.4443 13.9288 18.2279C13.9724 18.9781 14.1983 19.995 14.5751 20.7343C15.6956 22.6801 17.2059 23.3073 17.3358 23.3118C17.6894 23.4144 18.0893 23.4646 18.5081 23.4555ZM18.8262 21.1278C18.3374 21.1504 17.7987 21.0094 17.1834 20.6179C16.2858 19.9803 15.7728 19.0676 15.7787 17.7985C15.7874 17.0323 15.8483 16.6332 16.0641 16.1265C16.7512 14.786 17.2729 14.0827 19.1036 14.2256L23.6464 1.29183L25.456 1.26987L20.5457 14.9367C20.9108 15.2986 21.1904 15.8479 21.4343 16.5243C21.609 17.1009 21.588 17.8176 21.4585 18.5218C21.2994 19.5129 20.7722 20.3172 19.8886 20.8201C19.5566 20.9941 19.2064 21.1104 18.8262 21.1278Z"/>
<path d="M12.202 0.146667L4.89551 0.172164V21.6618L12.3115 21.586L12.202 0.146667ZM10.0433 1.77814V20.4869H6.93891L6.8549 1.82019L10.0433 1.77814Z"/>
<path d="M22.6078 25.7992L15.3013 25.8251V47.7701L22.7173 47.6928L22.6078 25.7992ZM20.4491 27.4652V46.5704H17.3448L17.2607 27.5081L20.4491 27.4652Z"/>
</svg>
