<svg viewBox="0 0 73 74" fill="none" xmlns="http://www.w3.org/2000/svg">
<path fill-rule="evenodd" clip-rule="evenodd" d="M36.5 69L5 53V21L36.5 5L68 21V53L36.5 69Z" stroke="#DF5C32" stroke-width="8.19416" stroke-linecap="round"/>
<path d="M35.2949 37.4283C35.4097 41.3182 38.8379 44.3883 42.9521 44.2856C47.0663 44.1828 50.3085 40.9462 50.1937 37.0563C50.0789 33.1664 46.6506 30.0963 42.5364 30.1991C38.4222 30.3018 35.1801 33.5385 35.2949 37.4283Z" fill="#DF5C32"/>
<path d="M35.7701 38.3409C32.195 40.4212 27.4748 39.4644 25.2271 36.2037C22.9795 32.943 24.0556 28.6132 27.6307 26.5329C31.2058 24.4526 35.9261 25.4094 38.1737 28.6701C40.4214 31.9308 39.3452 36.2606 35.7701 38.3409Z" fill="#DF5C32"/>
<path d="M33.9183 35.6191C31.9603 36.7585 29.3809 36.2428 28.1571 34.4674C26.9333 32.692 27.5285 30.3291 29.4865 29.1897C31.4445 28.0504 34.0238 28.566 35.2477 30.3415C36.4715 32.1169 35.8763 34.4798 33.9183 35.6191Z" fill="white"/>
<path d="M37.3158 30.5577L31.9941 27.6766L42.0576 13.9502L47.3792 16.8313L37.3158 30.5577Z" fill="#DF5C32"/>
<path d="M46.1049 35.2166L40.7832 32.3356L50.8466 18.6092L56.1683 21.4902L46.1049 35.2166Z" fill="#DF5C32"/>
<path d="M27.1416 36.1877L26.9329 30.7106L10.8755 30.8403L11.0842 36.3174L27.1416 36.1877Z" fill="#DF5C32"/>
<path d="M36.2703 37.3338C39.9861 39.1939 41.375 43.4525 39.3726 46.8458C37.3702 50.239 32.7347 51.4819 29.019 49.6218C25.3032 47.7617 23.9143 43.503 25.9167 40.1098C27.9191 36.7165 32.5545 35.4737 36.2703 37.3338Z" fill="#DF5C32"/>
<path d="M34.5869 40.146C36.6219 41.1647 37.3878 43.4884 36.2975 45.336C35.2072 47.1836 32.6736 47.8555 30.6386 46.8367C28.6035 45.818 27.8377 43.4944 28.928 41.6468C30.0183 39.7992 32.5518 39.1273 34.5869 40.146Z" fill="white"/>
<path d="M28.2097 39.8081L28.0195 45.3143L10.8647 45.1814L11.0548 39.6752L28.2097 39.8081Z" fill="#DF5C32"/>
<path d="M38.929 45.6801L34.3389 48.1L43.0648 59.5048L47.6549 57.0849L38.929 45.6801Z" fill="#DF5C32"/>
<path d="M47.1902 41.4056L42.6001 43.8256L51.3261 55.2304L55.9162 52.8105L47.1902 41.4056Z" fill="#DF5C32"/>
<path d="M38.8177 37.1276C38.8806 39.258 40.7475 40.9397 42.9877 40.8837C45.2279 40.8278 46.9929 39.0554 46.93 36.925C46.8671 34.7946 45.0002 33.1129 42.76 33.1689C40.5199 33.2248 38.7548 34.9972 38.8177 37.1276Z" fill="white"/>
</svg>
