<svg viewBox="0 0 245 228" fill="none" xmlns="http://www.w3.org/2000/svg">
<path fill-rule="evenodd" clip-rule="evenodd" d="M82.8771 157.87L121.754 136.402V93.4674L82.8771 72L43.9999 93.4674V136.402L82.8771 157.87Z" stroke="#DF5C32" stroke-width="8.19416" stroke-linecap="round"/>
<path d="M84.3643 115.51C84.2226 120.729 79.9914 124.848 74.9137 124.71C69.8359 124.572 65.8344 120.23 65.9761 115.01C66.1178 109.791 70.349 105.672 75.4267 105.81C80.5045 105.948 84.5059 110.29 84.3643 115.51Z" fill="#DF5C32"/>
<path d="M83.7784 116.734C88.1908 119.525 94.0165 118.241 96.7906 113.866C99.5646 109.491 98.2364 103.682 93.8241 100.891C89.4117 98.0997 83.5859 99.3836 80.8119 103.758C78.0378 108.133 79.366 113.943 83.7784 116.734Z" fill="#DF5C32"/>
<path d="M86.063 113.082C88.4796 114.611 91.663 113.919 93.1735 111.537C94.6839 109.155 93.9494 105.984 91.5328 104.456C89.1162 102.927 85.9328 103.619 84.4223 106.001C82.9119 108.383 83.6464 111.553 86.063 113.082Z" fill="white"/>
<path d="M81.8705 106.291L88.4385 102.426L76.0182 84.0086L69.4502 87.8742L81.8705 106.291Z" fill="#DF5C32"/>
<path d="M71.0236 112.542L77.5916 108.677L65.1713 90.2596L58.6033 94.1252L71.0236 112.542Z" fill="#DF5C32"/>
<path d="M94.4272 113.845L94.6848 106.496L114.503 106.67L114.245 114.019L94.4272 113.845Z" fill="#DF5C32"/>
<path d="M83.1608 115.383C78.5749 117.878 76.8606 123.592 79.332 128.145C81.8034 132.698 87.5244 134.365 92.1104 131.87C96.6964 129.374 98.4106 123.66 95.9393 119.107C93.4679 114.555 87.7468 112.887 83.1608 115.383Z" fill="#DF5C32"/>
<path d="M85.239 119.156C82.7274 120.523 81.7821 123.64 83.1277 126.119C84.4733 128.598 87.6003 129.5 90.112 128.133C92.6236 126.766 93.5688 123.648 92.2232 121.17C90.8775 118.691 87.7506 117.789 85.239 119.156Z" fill="white"/>
<path d="M93.1083 118.702L93.343 126.09L114.516 125.912L114.281 118.524L93.1083 118.702Z" fill="#DF5C32"/>
<path d="M79.8796 126.581L85.5447 129.828L74.7751 145.13L69.11 141.883L79.8796 126.581Z" fill="#DF5C32"/>
<path d="M69.6825 120.846L75.3477 124.093L64.5781 139.395L58.913 136.148L69.6825 120.846Z" fill="#DF5C32"/>
<path d="M80.0162 115.106C79.9386 117.964 77.6344 120.221 74.8696 120.146C72.1048 120.071 69.9264 117.693 70.004 114.834C70.0816 111.976 72.3858 109.72 75.1506 109.795C77.9154 109.87 80.0938 112.248 80.0162 115.106Z" fill="white"/>
<path fill-rule="evenodd" clip-rule="evenodd" d="M43.8771 221.87L82.7544 200.402V157.467L43.8771 136L4.99989 157.467V200.402L43.8771 221.87Z" stroke="#DF5C32" stroke-width="8.19416" stroke-linecap="round"/>
<path d="M45.3643 179.51C45.2226 184.729 40.9914 188.848 35.9137 188.71C30.8359 188.572 26.8344 184.23 26.9761 179.01C27.1178 173.791 31.349 169.672 36.4267 169.81C41.5045 169.948 45.5059 174.29 45.3643 179.51Z" fill="#DF5C32"/>
<path d="M44.7784 180.734C49.1908 183.525 55.0165 182.241 57.7906 177.866C60.5646 173.491 59.2364 167.682 54.8241 164.891C50.4117 162.1 44.5859 163.384 41.8119 167.758C39.0378 172.133 40.366 177.943 44.7784 180.734Z" fill="#DF5C32"/>
<path d="M47.063 177.082C49.4796 178.611 52.663 177.919 54.1735 175.537C55.6839 173.155 54.9494 169.984 52.5328 168.456C50.1162 166.927 46.9328 167.619 45.4223 170.001C43.9119 172.383 44.6464 175.553 47.063 177.082Z" fill="white"/>
<path d="M42.8705 170.291L49.4385 166.426L37.0182 148.009L30.4502 151.874L42.8705 170.291Z" fill="#DF5C32"/>
<path d="M32.0236 176.542L38.5916 172.677L26.1713 154.26L19.6033 158.125L32.0236 176.542Z" fill="#DF5C32"/>
<path d="M55.4272 177.845L55.6848 170.496L75.5028 170.67L75.2453 178.019L55.4272 177.845Z" fill="#DF5C32"/>
<path d="M44.1608 179.383C39.5749 181.878 37.8606 187.592 40.332 192.145C42.8034 196.698 48.5244 198.365 53.1104 195.87C57.6964 193.374 59.4106 187.66 56.9393 183.107C54.4679 178.555 48.7468 176.887 44.1608 179.383Z" fill="#DF5C32"/>
<path d="M46.239 183.156C43.7274 184.523 42.7821 187.64 44.1277 190.119C45.4733 192.598 48.6003 193.5 51.112 192.133C53.6236 190.766 54.5688 187.648 53.2232 185.17C51.8775 182.691 48.7506 181.789 46.239 183.156Z" fill="white"/>
<path d="M54.1083 182.702L54.343 190.09L75.5155 189.912L75.2808 182.524L54.1083 182.702Z" fill="#DF5C32"/>
<path d="M40.8796 190.581L46.5447 193.828L35.7751 209.13L30.11 205.883L40.8796 190.581Z" fill="#DF5C32"/>
<path d="M30.6825 184.846L36.3477 188.093L25.5781 203.395L19.913 200.148L30.6825 184.846Z" fill="#DF5C32"/>
<path d="M41.0162 179.106C40.9386 181.964 38.6344 184.221 35.8696 184.146C33.1048 184.071 30.9264 181.693 31.004 178.834C31.0816 175.976 33.3858 173.72 36.1506 173.795C38.9154 173.87 41.0938 176.248 41.0162 179.106Z" fill="white"/>
<path fill-rule="evenodd" clip-rule="evenodd" d="M122.877 221.87L161.754 200.402V157.467L122.877 136L83.9999 157.467V200.402L122.877 221.87Z" stroke="#DF5C32" stroke-width="8.19416" stroke-linecap="round"/>
<path d="M124.364 179.51C124.223 184.729 119.991 188.848 114.914 188.71C109.836 188.572 105.834 184.23 105.976 179.01C106.118 173.791 110.349 169.672 115.427 169.81C120.504 169.948 124.506 174.29 124.364 179.51Z" fill="#DF5C32"/>
<path d="M123.778 180.734C128.191 183.525 134.017 182.241 136.791 177.866C139.565 173.491 138.236 167.682 133.824 164.891C129.412 162.1 123.586 163.384 120.812 167.758C118.038 172.133 119.366 177.943 123.778 180.734Z" fill="#DF5C32"/>
<path d="M126.063 177.082C128.48 178.611 131.663 177.919 133.173 175.537C134.684 173.155 133.949 169.984 131.533 168.456C129.116 166.927 125.933 167.619 124.422 170.001C122.912 172.383 123.646 175.553 126.063 177.082Z" fill="white"/>
<path d="M121.87 170.291L128.438 166.426L116.018 148.009L109.45 151.874L121.87 170.291Z" fill="#DF5C32"/>
<path d="M111.024 176.542L117.592 172.677L105.171 154.26L98.6033 158.125L111.024 176.542Z" fill="#DF5C32"/>
<path d="M134.427 177.845L134.685 170.496L154.503 170.67L154.245 178.019L134.427 177.845Z" fill="#DF5C32"/>
<path d="M123.161 179.383C118.575 181.878 116.861 187.592 119.332 192.145C121.803 196.698 127.524 198.365 132.11 195.87C136.696 193.374 138.411 187.66 135.939 183.107C133.468 178.555 127.747 176.887 123.161 179.383Z" fill="#DF5C32"/>
<path d="M125.239 183.156C122.727 184.523 121.782 187.64 123.128 190.119C124.473 192.598 127.6 193.5 130.112 192.133C132.624 190.766 133.569 187.648 132.223 185.17C130.878 182.691 127.751 181.789 125.239 183.156Z" fill="white"/>
<path d="M133.108 182.702L133.343 190.09L154.516 189.912L154.281 182.524L133.108 182.702Z" fill="#DF5C32"/>
<path d="M119.88 190.581L125.545 193.828L114.775 209.13L109.11 205.883L119.88 190.581Z" fill="#DF5C32"/>
<path d="M109.683 184.846L115.348 188.093L104.578 203.395L98.913 200.148L109.683 184.846Z" fill="#DF5C32"/>
<path d="M120.016 179.106C119.939 181.964 117.634 184.221 114.87 184.146C112.105 184.071 109.926 181.693 110.004 178.834C110.082 175.976 112.386 173.72 115.151 173.795C117.915 173.87 120.094 176.248 120.016 179.106Z" fill="white"/>
<path fill-rule="evenodd" clip-rule="evenodd" d="M201.877 222.87L240.754 201.402V158.467L201.877 137L163 158.467V201.402L201.877 222.87Z" stroke="#DF5C32" stroke-width="8.19416" stroke-linecap="round"/>
<path d="M203.364 180.51C203.223 185.729 198.991 189.848 193.914 189.71C188.836 189.572 184.834 185.23 184.976 180.01C185.118 174.791 189.349 170.672 194.427 170.81C199.504 170.948 203.506 175.29 203.364 180.51Z" fill="#DF5C32"/>
<path d="M202.778 181.734C207.191 184.525 213.017 183.241 215.791 178.866C218.565 174.491 217.236 168.682 212.824 165.891C208.412 163.1 202.586 164.384 199.812 168.758C197.038 173.133 198.366 178.943 202.778 181.734Z" fill="#DF5C32"/>
<path d="M205.063 178.082C207.48 179.611 210.663 178.919 212.173 176.537C213.684 174.155 212.949 170.984 210.533 169.456C208.116 167.927 204.933 168.619 203.422 171.001C201.912 173.383 202.646 176.553 205.063 178.082Z" fill="white"/>
<path d="M200.87 171.291L207.438 167.426L195.018 149.009L188.45 152.874L200.87 171.291Z" fill="#DF5C32"/>
<path d="M190.024 177.542L196.592 173.677L184.171 155.26L177.603 159.125L190.024 177.542Z" fill="#DF5C32"/>
<path d="M213.427 178.845L213.685 171.496L233.503 171.67L233.245 179.019L213.427 178.845Z" fill="#DF5C32"/>
<path d="M202.161 180.383C197.575 182.878 195.861 188.592 198.332 193.145C200.803 197.698 206.524 199.365 211.11 196.87C215.696 194.374 217.411 188.66 214.939 184.107C212.468 179.555 206.747 177.887 202.161 180.383Z" fill="#DF5C32"/>
<path d="M204.239 184.156C201.727 185.523 200.782 188.64 202.128 191.119C203.473 193.598 206.6 194.5 209.112 193.133C211.624 191.766 212.569 188.648 211.223 186.17C209.878 183.691 206.751 182.789 204.239 184.156Z" fill="white"/>
<path d="M212.108 183.702L212.343 191.09L233.516 190.912L233.281 183.524L212.108 183.702Z" fill="#DF5C32"/>
<path d="M198.88 191.581L204.545 194.828L193.775 210.13L188.11 206.883L198.88 191.581Z" fill="#DF5C32"/>
<path d="M188.683 185.846L194.348 189.093L183.578 204.395L177.913 201.148L188.683 185.846Z" fill="#DF5C32"/>
<path d="M199.016 180.106C198.939 182.964 196.634 185.221 193.87 185.146C191.105 185.071 188.926 182.693 189.004 179.834C189.082 176.976 191.386 174.72 194.151 174.795C196.915 174.87 199.094 177.248 199.016 180.106Z" fill="white"/>
<path fill-rule="evenodd" clip-rule="evenodd" d="M44.8771 90.8697L83.7544 69.4023V26.4674L44.8771 5L5.99989 26.4674V69.4023L44.8771 90.8697Z" stroke="#DF5C32" stroke-width="8.19416" stroke-linecap="round"/>
<path d="M46.3643 48.5096C46.2226 53.7287 41.9914 57.8478 36.9137 57.71C31.8359 57.5722 27.8344 53.2295 27.9761 48.0104C28.1178 42.7913 32.349 38.6721 37.4267 38.81C42.5045 38.9478 46.5059 43.2905 46.3643 48.5096Z" fill="#DF5C32"/>
<path d="M45.7784 49.7339C50.1908 52.5251 56.0165 51.2413 58.7906 46.8663C61.5646 42.4914 60.2364 36.6822 55.8241 33.8909C51.4117 31.0997 45.5859 32.3836 42.8119 36.7585C40.0378 41.1334 41.366 46.9427 45.7784 49.7339Z" fill="#DF5C32"/>
<path d="M48.063 46.082C50.4796 47.6107 53.663 46.9189 55.1735 44.5368C56.6839 42.1547 55.9494 38.9843 53.5328 37.4557C51.1162 35.927 47.9328 36.6188 46.4223 39.0009C44.9119 41.3831 45.6464 44.5534 48.063 46.082Z" fill="white"/>
<path d="M43.8705 39.2911L50.4385 35.4255L38.0182 17.0086L31.4502 20.8742L43.8705 39.2911Z" fill="#DF5C32"/>
<path d="M33.0236 45.5421L39.5916 41.6765L27.1713 23.2596L20.6033 27.1252L33.0236 45.5421Z" fill="#DF5C32"/>
<path d="M56.4272 46.845L56.6848 39.4963L76.5028 39.6703L76.2453 47.019L56.4272 46.845Z" fill="#DF5C32"/>
<path d="M45.1608 48.3827C40.5749 50.8784 38.8606 56.5923 41.332 61.1451C43.8034 65.6978 49.5244 67.3654 54.1104 64.8697C58.6964 62.374 60.4106 56.6601 57.9393 52.1073C55.4679 47.5545 49.7468 45.8869 45.1608 48.3827Z" fill="#DF5C32"/>
<path d="M47.239 52.1558C44.7274 53.5227 43.7821 56.6404 45.1277 59.1193C46.4733 61.5983 49.6003 62.4998 52.112 61.1329C54.6236 59.7661 55.5688 56.6485 54.2232 54.1695C52.8775 51.6906 49.7506 50.789 47.239 52.1558Z" fill="white"/>
<path d="M55.1083 51.7025L55.343 59.0902L76.5155 58.9119L76.2808 51.5242L55.1083 51.7025Z" fill="#DF5C32"/>
<path d="M41.8796 59.581L47.5447 62.8279L36.7751 78.1299L31.11 74.8831L41.8796 59.581Z" fill="#DF5C32"/>
<path d="M31.6825 53.846L37.3477 57.0928L26.5781 72.3948L20.913 69.148L31.6825 53.846Z" fill="#DF5C32"/>
<path d="M42.0162 48.1061C41.9386 50.9645 39.6344 53.2208 36.8696 53.1458C34.1048 53.0707 31.9264 50.6927 32.004 47.8343C32.0816 44.9759 34.3858 42.7196 37.1506 42.7946C39.9154 42.8697 42.0938 45.2477 42.0162 48.1061Z" fill="white"/>
</svg>
