<svg viewBox="0 0 194 98" fill="none" xmlns="http://www.w3.org/2000/svg">
<path d="M19.5689 27.8175L16.5298 30.9761V39.3763H13.2517V14.5171H16.5298V26.8101L27.5764 14.5171H31.5375L21.7543 25.4954L32.3058 39.3763H28.3789L19.5689 27.8175ZM33.3644 29.9687C33.3644 28.1589 33.7172 26.5312 34.423 25.0857C35.1401 23.6401 36.1303 22.5246 37.3938 21.7392C38.6686 20.9539 40.1199 20.5612 41.7475 20.5612C44.2631 20.5612 46.2948 21.4319 47.8428 23.1734C49.4022 24.9149 50.1819 27.2313 50.1819 30.1224V30.3444C50.1819 32.1428 49.8348 33.7591 49.1404 35.1933C48.4575 36.6161 47.4729 37.7259 46.1867 38.5226C44.9119 39.3194 43.4435 39.7178 41.7817 39.7178C39.2776 39.7178 37.2458 38.847 35.6864 37.1055C34.1384 35.364 33.3644 33.0591 33.3644 30.1907V29.9687ZM36.5401 30.3444C36.5401 32.3932 37.0125 34.0379 37.9572 35.2786C38.9133 36.5193 40.1882 37.1397 41.7817 37.1397C43.3866 37.1397 44.6614 36.5136 45.6062 35.2616C46.5509 33.9981 47.0233 32.2338 47.0233 29.9687C47.0233 27.9427 46.5395 26.3036 45.572 25.0515C44.6159 23.7881 43.3411 23.1564 41.7475 23.1564C40.1882 23.1564 38.9304 23.7767 37.9743 25.0174C37.0182 26.2581 36.5401 28.0337 36.5401 30.3444ZM113.849 39.7178C111.345 39.7178 109.308 38.8982 107.737 37.2592C106.166 35.6087 105.381 33.4062 105.381 30.6517V30.0712C105.381 28.2386 105.728 26.6052 106.422 25.171C107.128 23.7255 108.107 22.5986 109.359 21.7905C110.623 20.9709 111.988 20.5612 113.457 20.5612C115.858 20.5612 117.725 21.3522 119.057 22.9344C120.389 24.5166 121.055 26.7817 121.055 29.7297V31.0444H108.54C108.585 32.8656 109.114 34.3396 110.127 35.4664C111.152 36.5819 112.449 37.1397 114.02 37.1397C115.136 37.1397 116.08 36.912 116.854 36.4567C117.628 36.0014 118.306 35.3981 118.886 34.6469L120.816 36.1494C119.268 38.5283 116.946 39.7178 113.849 39.7178ZM113.457 23.1564C112.182 23.1564 111.112 23.623 110.247 24.5564C109.382 25.4784 108.847 26.776 108.642 28.4492H117.896V28.2101C117.805 26.6052 117.372 25.3645 116.598 24.4881C115.824 23.6003 114.777 23.1564 113.457 23.1564ZM132.135 37.1397C133.262 37.1397 134.247 36.7982 135.089 36.1152C135.931 35.4323 136.398 34.5786 136.489 33.5542H139.477C139.42 34.6128 139.056 35.6201 138.384 36.5762C137.713 37.5324 136.814 38.295 135.687 38.8641C134.571 39.4332 133.387 39.7178 132.135 39.7178C129.62 39.7178 127.617 38.8812 126.125 37.208C124.646 35.5234 123.906 33.2241 123.906 30.3102V29.7809C123.906 27.9825 124.236 26.3833 124.896 24.9832C125.556 23.5832 126.501 22.4962 127.73 21.7222C128.971 20.9482 130.434 20.5612 132.118 20.5612C134.19 20.5612 135.909 21.1815 137.275 22.4222C138.652 23.6629 139.386 25.2735 139.477 27.254H136.489C136.398 26.0589 135.943 25.08 135.123 24.3174C134.315 23.5434 133.313 23.1564 132.118 23.1564C130.513 23.1564 129.267 23.7369 128.379 24.8979C127.503 26.0475 127.064 27.715 127.064 29.9004V30.498C127.064 32.6265 127.503 34.2656 128.379 35.4152C129.256 36.5648 130.508 37.1397 132.135 37.1397ZM147.314 16.4293V20.9026H150.763V23.3442H147.314V34.8006C147.314 35.5404 147.467 36.0982 147.775 36.4738C148.082 36.838 148.606 37.0201 149.346 37.0201C149.71 37.0201 150.211 36.9518 150.848 36.8153V39.3763C150.017 39.604 149.209 39.7178 148.424 39.7178C147.012 39.7178 145.948 39.2909 145.231 38.4373C144.514 37.5836 144.155 36.3713 144.155 34.8006V23.3442H140.792V20.9026H144.155V16.4293H147.314ZM153.29 29.9687C153.29 28.1589 153.642 26.5312 154.348 25.0857C155.065 23.6401 156.056 22.5246 157.319 21.7392C158.594 20.9539 160.045 20.5612 161.673 20.5612C164.188 20.5612 166.22 21.4319 167.768 23.1734C169.327 24.9149 170.107 27.2313 170.107 30.1224V30.3444C170.107 32.1428 169.76 33.7591 169.066 35.1933C168.383 36.6161 167.398 37.7259 166.112 38.5226C164.837 39.3194 163.369 39.7178 161.707 39.7178C159.203 39.7178 157.171 38.847 155.612 37.1055C154.064 35.364 153.29 33.0591 153.29 30.1907V29.9687ZM156.465 30.3444C156.465 32.3932 156.938 34.0379 157.882 35.2786C158.839 36.5193 160.113 37.1397 161.707 37.1397C163.312 37.1397 164.587 36.5136 165.531 35.2616C166.476 33.9981 166.948 32.2338 166.948 29.9687C166.948 27.9427 166.465 26.3036 165.497 25.0515C164.541 23.7881 163.266 23.1564 161.673 23.1564C160.113 23.1564 158.856 23.7767 157.899 25.0174C156.943 26.2581 156.465 28.0337 156.465 30.3444Z" fill="#DF5C32"/>
<path d="M192.158 7H1V52.1796H192.158V7Z" stroke="#DF5C32" stroke-width="1.81578" stroke-linecap="round" stroke-linejoin="round"/>
<path d="M73.7109 10.7071H67.8567V29.0541H73.7109V10.7071Z" fill="#DF5C32"/>
<path d="M72.028 12.845H69.5073V28.0353H72.028V12.845Z" fill="#FBFBF2"/>
<path d="M72.7216 10.6853H68.53V12.2H72.7216V10.6853Z" fill="#DF5C32"/>
<path d="M89.9285 4.56004L84.4844 4.49849L75.3939 27.9226L80.838 27.9842L89.9285 4.56004Z" fill="#DF5C32"/>
<path d="M78.8588 30.6165C81.0698 30.6165 82.8622 28.5389 82.8622 25.976C82.8622 23.4131 81.0698 21.3354 78.8588 21.3354C76.6478 21.3354 74.8555 23.4131 74.8555 25.976C74.8555 28.5389 76.6478 30.6165 78.8588 30.6165Z" fill="#DF5C32"/>
<path d="M78.9363 28.7181C80.3303 28.7181 81.4603 27.4596 81.4603 25.9071C81.4603 24.3546 80.3303 23.0961 78.9363 23.0961C77.5424 23.0961 76.4124 24.3546 76.4124 25.9071C76.4124 27.4596 77.5424 28.7181 78.9363 28.7181Z" fill="#FBFBF2"/>
<path d="M84.6037 9.9324L79.1143 23.7317L80.2173 24.7503L85.7068 10.9511L84.6037 9.9324Z" fill="#FBFBF2"/>
<path d="M86.7324 11.2924H82.5408V12.807H86.7324V11.2924Z" fill="#DF5C32"/>
<path d="M76.5336 50.9201H82.0146V32.4255H76.5336V50.9201Z" fill="#DF5C32"/>
<path d="M78.1092 48.765H80.4692V33.4526H78.1092V48.765Z" fill="#FBFBF2"/>
<path d="M77.4598 50.9421H81.3843V49.4152H77.4598V50.9421Z" fill="#DF5C32"/>
<path d="M61.3497 57.1168L66.4468 57.1788L74.9579 33.5663L69.8608 33.5042L61.3497 57.1168Z" fill="#DF5C32"/>
<path d="M71.7137 30.8504C69.6437 30.8504 67.9655 32.9448 67.9655 35.5283C67.9655 38.1118 69.6437 40.2062 71.7137 40.2062C73.7838 40.2062 75.4619 38.1118 75.4619 35.5283C75.4619 32.9448 73.7838 30.8504 71.7137 30.8504Z" fill="#DF5C32"/>
<path d="M71.6413 32.7642C70.3362 32.7642 69.2782 34.0329 69.2782 35.5979C69.2782 37.1629 70.3362 38.4315 71.6413 38.4315C72.9464 38.4315 74.0044 37.1629 74.0044 35.5979C74.0044 34.0329 72.9464 32.7642 71.6413 32.7642Z" fill="#FBFBF2"/>
<path d="M66.335 51.701L71.4746 37.7908L70.4418 36.7639L65.3022 50.6741L66.335 51.701Z" fill="#FBFBF2"/>
<path d="M64.3422 50.3302H68.2666V48.8033H64.3422V50.3302Z" fill="#DF5C32"/>
<path d="M93.3912 0H63.1702V11.5955H93.3912V0Z" fill="#FBFBF2"/>
<path d="M95.6205 4.94839H57.1853V10.225H95.6205V4.94839Z" fill="#FBFBF2"/>
<path d="M95.5486 50.2057H57.2507V57.5041H95.5486V50.2057Z" fill="#FBFBF2"/>
<path d="M96.939 1.89141H55.936V58.7911H96.939V1.89141Z" stroke="#DF5C32" stroke-width="2.65785" stroke-linecap="round" stroke-linejoin="round"/>
<path d="M72.8243 78.3953C71.8048 78.4051 70.6407 78.8456 69.9196 79.8701C69.2032 80.8382 68.8555 82.6509 69.0835 83.8079L69.3444 85.1892L65 97.282L70.1175 97.3362L73.6031 87.5322C74.8021 87.178 75.8051 86.3332 76.2567 84.691C76.4315 83.9299 76.5204 83.3187 76.4887 82.6824C76.4607 82.0732 76.2874 81.2458 75.989 80.6422C75.0989 79.0522 73.8795 78.5283 73.7741 78.5234C73.4882 78.4367 73.1642 78.392 72.8243 78.3953V78.3953ZM72.5432 80.281C72.9401 80.2675 73.3759 80.3872 73.8713 80.7109C74.5934 81.2372 75.0007 81.9828 74.9834 83.0126C74.9688 83.6343 74.9154 83.9575 74.7353 84.3665C74.1646 85.4475 73.7343 86.0131 72.2502 85.8791L68.4365 96.3296H66.9678L71.087 85.2879C70.7943 84.9906 70.5728 84.5421 70.3816 83.9908C70.2455 83.5213 70.2695 82.9399 70.3816 82.3697C70.5204 81.567 70.9561 80.9196 71.6781 80.5202C71.9493 80.3823 72.2345 80.2914 72.5432 80.281Z" fill="#DF5C32"/>
<path d="M80.019 78.0345C81.0383 78.0124 82.197 77.5578 82.9056 76.5245C83.6102 75.5478 83.9359 73.7311 83.6939 72.5769L83.4162 71.1989L87.6136 59.0543L82.4958 59.0621L79.1294 68.9077C77.9348 69.2764 76.9421 70.1334 76.5105 71.7809C76.3449 72.5441 76.2635 73.1564 76.3029 73.7922C76.3383 74.401 76.5216 75.2263 76.8273 75.8262C77.7367 77.4053 78.9623 77.9143 79.0677 77.9179C79.3547 78.0012 79.6792 78.0419 80.019 78.0345V78.0345ZM80.2772 76.1456C79.8805 76.1639 79.4434 76.0495 78.944 75.7318C78.2156 75.2143 77.7993 74.4737 77.8041 73.4438C77.8111 72.8219 77.8606 72.4981 78.0357 72.0869C78.5933 70.9991 79.0166 70.4283 80.5023 70.5443L84.1889 60.0483L85.6575 60.0305L81.6726 71.1213C81.9689 71.415 82.1958 71.8608 82.3937 72.4098C82.5355 72.8776 82.5185 73.4593 82.4134 74.0307C82.2843 74.8351 81.8565 75.4878 81.1393 75.8958C80.8699 76.0371 80.5858 76.1314 80.2772 76.1456Z" fill="#DF5C32"/>
<path d="M74.9016 59.1192L68.9722 59.1399V76.5791L74.9904 76.5176L74.9016 59.1192ZM73.1497 60.4432V75.6256H70.6304L70.5623 60.4773L73.1497 60.4432Z" fill="#DF5C32"/>
<path d="M83.3469 79.9367L77.4175 79.9577V97.7665L83.4357 97.7038L83.3469 79.9367ZM81.595 81.2887V96.7929H79.0758L79.0076 81.3235L81.595 81.2887Z" fill="#DF5C32"/>
</svg>
