<svg viewBox="0 0 56 35" fill="none" xmlns="http://www.w3.org/2000/svg">
<path d="M6.37649 7.63981L6.49679 34.71L10.4671 34.6498L10.407 9.0835L17.9866 12.1515C19.6701 17.6483 23.6492 19.91 27.157 19.9569C31.8042 20.019 35.0977 16.006 36.5748 12.0311L45.117 8.48197V34.349L49.0271 34.2888V6.73749L55.3435 4.21093L51.674 0L32.1834 11.7906C30.3304 18.0986 22.7945 16.1762 22.0772 11.4296L4.03042 0.721875L0 5.23357L6.37649 7.63981Z"/>
<path d="M18.9878 6.40825L22.7175 8.57387C23.7682 7.48799 24.009 6.09058 26.9885 5.74654C29.5046 5.62927 30.7793 7.06372 32.0416 8.5137L35.5909 6.34809C34.2758 4.09303 31.8069 1.99434 27.3495 1.47546C22.4604 1.97247 20.7514 4.18873 18.9878 6.40825Z"/>
</svg>
