<svg viewBox="0 0 17 21" fill="none" xmlns="http://www.w3.org/2000/svg">
<path fill-rule="evenodd" clip-rule="evenodd" d="M8.45067 0.0603027C6.84628 0.0605732 5.28053 0.404886 3.96432 1.04686C2.64811 1.68883 1.64467 2.59763 1.08911 3.65086C1.59315 3.1642 2.27803 2.76479 3.08262 2.48829C3.88722 2.21179 4.78651 2.0668 5.70021 2.06626C7.16805 2.06625 8.57578 2.4386 9.61372 3.10139C10.6517 3.76417 11.2348 4.6631 11.2348 5.60043C11.2348 6.53776 10.6517 7.43671 9.61372 8.09949C8.57578 8.76227 7.16805 9.13461 5.70021 9.1346C4.82192 9.13432 3.95631 9.00056 3.17499 8.74438C2.39367 8.4882 1.71908 8.11696 1.20691 7.66133C1.80198 8.66281 2.80746 9.51857 4.09657 10.1207C5.38569 10.7229 6.90072 11.0445 8.45067 11.0451C10.5324 11.0451 12.5288 10.4664 14.0008 9.43641C15.4728 8.40639 16.2998 7.00937 16.2998 5.55268C16.2998 4.09599 15.4728 2.69898 14.0008 1.66896C12.5288 0.638945 10.5324 0.0602858 8.45067 0.0603027Z"/>
<path fill-rule="evenodd" clip-rule="evenodd" d="M3.57397 9.60535V20.5819C4.41059 20.595 5.21887 20.6553 5.92374 20.7571V9.60535H3.57397Z"/>
<path fill-rule="evenodd" clip-rule="evenodd" d="M0 0V20.8C0.688462 20.6851 1.49795 20.612 2.34976 20.5879V0H0Z"/>
</svg>
