<svg  viewBox="0 0 165 491" fill="none" xmlns="http://www.w3.org/2000/svg">
<path fill-rule="evenodd" clip-rule="evenodd" d="M79.8773 418.87L41 397.402V354.467L79.8773 333L118.755 354.467V397.402L79.8773 418.87Z" stroke="#DF5C32" stroke-width="8.19416" stroke-linecap="round"/>
<path d="M78.3901 376.51C78.5318 381.729 82.763 385.848 87.8407 385.71C92.9185 385.572 96.9199 381.23 96.7783 376.01C96.6366 370.791 92.4054 366.672 87.3277 366.81C82.2499 366.948 78.2485 371.29 78.3901 376.51Z" fill="#DF5C32"/>
<path d="M78.976 377.734C74.5636 380.525 68.7379 379.241 65.9638 374.866C63.1898 370.491 64.5179 364.682 68.9303 361.891C73.3427 359.1 79.1685 360.384 81.9425 364.758C84.7166 369.133 83.3884 374.943 78.976 377.734Z" fill="#DF5C32"/>
<path d="M76.6914 374.082C74.2748 375.611 71.0914 374.919 69.5809 372.537C68.0705 370.155 68.805 366.984 71.2216 365.456C73.6382 363.927 76.8216 364.619 78.3321 367.001C79.8425 369.383 79.108 372.553 76.6914 374.082Z" fill="white"/>
<path d="M80.8839 367.291L74.3159 363.426L86.7362 345.009L93.3042 348.874L80.8839 367.291Z" fill="#DF5C32"/>
<path d="M91.7308 373.542L85.1628 369.677L97.5831 351.26L104.151 355.125L91.7308 373.542Z" fill="#DF5C32"/>
<path d="M68.3272 374.845L68.0696 367.496L48.2516 367.67L48.5091 375.019L68.3272 374.845Z" fill="#DF5C32"/>
<path d="M79.5935 376.383C84.1795 378.878 85.8938 384.592 83.4224 389.145C80.951 393.698 75.23 395.365 70.644 392.87C66.058 390.374 64.3438 384.66 66.8151 380.107C69.2865 375.555 75.0076 373.887 79.5935 376.383Z" fill="#DF5C32"/>
<path d="M77.5154 380.156C80.027 381.523 80.9723 384.64 79.6267 387.119C78.2811 389.598 75.1541 390.5 72.6424 389.133C70.1308 387.766 69.1856 384.648 70.5312 382.17C71.8769 379.691 75.0038 378.789 77.5154 380.156Z" fill="white"/>
<path d="M69.6461 379.702L69.4114 387.09L48.2388 386.912L48.4736 379.524L69.6461 379.702Z" fill="#DF5C32"/>
<path d="M82.8748 387.581L77.2097 390.828L87.9793 406.13L93.6444 402.883L82.8748 387.581Z" fill="#DF5C32"/>
<path d="M93.0719 381.846L87.4067 385.093L98.1763 400.395L103.841 397.148L93.0719 381.846Z" fill="#DF5C32"/>
<path d="M82.7382 376.106C82.8158 378.964 85.12 381.221 87.8848 381.146C90.6496 381.071 92.828 378.693 92.7504 375.834C92.6728 372.976 90.3686 370.72 87.6038 370.795C84.839 370.87 82.6606 373.248 82.7382 376.106Z" fill="white"/>
<path fill-rule="evenodd" clip-rule="evenodd" d="M83.8773 286.87L45 265.402V222.467L83.8773 201L122.755 222.467V265.402L83.8773 286.87Z" stroke="#DF5C32" stroke-width="8.19416" stroke-linecap="round"/>
<path d="M82.3901 244.51C82.5318 249.729 86.763 253.848 91.8407 253.71C96.9185 253.572 100.92 249.23 100.778 244.01C100.637 238.791 96.4054 234.672 91.3277 234.81C86.2499 234.948 82.2485 239.29 82.3901 244.51Z" fill="#DF5C32"/>
<path d="M82.976 245.734C78.5636 248.525 72.7379 247.241 69.9638 242.866C67.1898 238.491 68.5179 232.682 72.9303 229.891C77.3427 227.1 83.1685 228.384 85.9425 232.758C88.7166 237.133 87.3884 242.943 82.976 245.734Z" fill="#DF5C32"/>
<path d="M80.6914 242.082C78.2748 243.611 75.0914 242.919 73.5809 240.537C72.0705 238.155 72.805 234.984 75.2216 233.456C77.6382 231.927 80.8216 232.619 82.3321 235.001C83.8425 237.383 83.108 240.553 80.6914 242.082Z" fill="white"/>
<path d="M84.8839 235.291L78.3159 231.426L90.7362 213.009L97.3042 216.874L84.8839 235.291Z" fill="#DF5C32"/>
<path d="M95.7308 241.542L89.1628 237.677L101.583 219.26L108.151 223.125L95.7308 241.542Z" fill="#DF5C32"/>
<path d="M72.3272 242.845L72.0696 235.496L52.2516 235.67L52.5091 243.019L72.3272 242.845Z" fill="#DF5C32"/>
<path d="M83.5935 244.383C88.1795 246.878 89.8938 252.592 87.4224 257.145C84.951 261.698 79.23 263.365 74.644 260.87C70.058 258.374 68.3438 252.66 70.8151 248.107C73.2865 243.555 79.0076 241.887 83.5935 244.383Z" fill="#DF5C32"/>
<path d="M81.5154 248.156C84.027 249.523 84.9723 252.64 83.6267 255.119C82.2811 257.598 79.1541 258.5 76.6424 257.133C74.1308 255.766 73.1856 252.648 74.5312 250.17C75.8769 247.691 79.0038 246.789 81.5154 248.156Z" fill="white"/>
<path d="M73.6461 247.702L73.4114 255.09L52.2388 254.912L52.4736 247.524L73.6461 247.702Z" fill="#DF5C32"/>
<path d="M86.8748 255.581L81.2097 258.828L91.9793 274.13L97.6444 270.883L86.8748 255.581Z" fill="#DF5C32"/>
<path d="M97.0719 249.846L91.4067 253.093L102.176 268.395L107.841 265.148L97.0719 249.846Z" fill="#DF5C32"/>
<path d="M86.7382 244.106C86.8158 246.964 89.12 249.221 91.8848 249.146C94.6496 249.071 96.828 246.693 96.7504 243.834C96.6728 240.976 94.3686 238.72 91.6038 238.795C88.839 238.87 86.6606 241.248 86.7382 244.106Z" fill="white"/>
<path fill-rule="evenodd" clip-rule="evenodd" d="M121.877 90.8697L83 69.4023V26.4674L121.877 5L160.755 26.4674V69.4023L121.877 90.8697Z" stroke="#DF5C32" stroke-width="8.19416" stroke-linecap="round"/>
<path d="M120.39 48.5096C120.532 53.7287 124.763 57.8478 129.841 57.71C134.918 57.5722 138.92 53.2295 138.778 48.0104C138.637 42.7913 134.405 38.6721 129.328 38.81C124.25 38.9478 120.248 43.2905 120.39 48.5096Z" fill="#DF5C32"/>
<path d="M120.976 49.7339C116.564 52.5251 110.738 51.2413 107.964 46.8663C105.19 42.4914 106.518 36.6822 110.93 33.8909C115.343 31.0997 121.168 32.3836 123.943 36.7585C126.717 41.1334 125.388 46.9427 120.976 49.7339Z" fill="#DF5C32"/>
<path d="M118.691 46.082C116.275 47.6107 113.091 46.9189 111.581 44.5368C110.07 42.1547 110.805 38.9843 113.222 37.4557C115.638 35.927 118.822 36.6188 120.332 39.0009C121.843 41.3831 121.108 44.5534 118.691 46.082Z" fill="white"/>
<path d="M122.884 39.2911L116.316 35.4255L128.736 17.0086L135.304 20.8742L122.884 39.2911Z" fill="#DF5C32"/>
<path d="M133.731 45.5421L127.163 41.6765L139.583 23.2596L146.151 27.1252L133.731 45.5421Z" fill="#DF5C32"/>
<path d="M110.327 46.845L110.07 39.4963L90.2516 39.6703L90.5091 47.019L110.327 46.845Z" fill="#DF5C32"/>
<path d="M121.594 48.3827C126.18 50.8784 127.894 56.5923 125.422 61.1451C122.951 65.6978 117.23 67.3654 112.644 64.8697C108.058 62.374 106.344 56.6601 108.815 52.1073C111.286 47.5545 117.008 45.8869 121.594 48.3827Z" fill="#DF5C32"/>
<path d="M119.515 52.1558C122.027 53.5227 122.972 56.6404 121.627 59.1193C120.281 61.5983 117.154 62.4998 114.642 61.1329C112.131 59.7661 111.186 56.6485 112.531 54.1695C113.877 51.6906 117.004 50.789 119.515 52.1558Z" fill="white"/>
<path d="M111.646 51.7025L111.411 59.0902L90.2388 58.9119L90.4736 51.5242L111.646 51.7025Z" fill="#DF5C32"/>
<path d="M124.875 59.581L119.21 62.8279L129.979 78.1299L135.644 74.8831L124.875 59.581Z" fill="#DF5C32"/>
<path d="M135.072 53.846L129.407 57.0928L140.176 72.3948L145.841 69.148L135.072 53.846Z" fill="#DF5C32"/>
<path d="M124.738 48.1061C124.816 50.9645 127.12 53.2208 129.885 53.1458C132.65 53.0707 134.828 50.6927 134.75 47.8343C134.673 44.9759 132.369 42.7196 129.604 42.7946C126.839 42.8697 124.661 45.2477 124.738 48.1061Z" fill="white"/>
<path fill-rule="evenodd" clip-rule="evenodd" d="M43.8773 220.87L5 199.402V156.467L43.8773 135L82.7545 156.467V199.402L43.8773 220.87Z" stroke="#DF5C32" stroke-width="8.19416" stroke-linecap="round"/>
<path d="M42.3901 178.51C42.5318 183.729 46.763 187.848 51.8407 187.71C56.9185 187.572 60.9199 183.23 60.7783 178.01C60.6366 172.791 56.4054 168.672 51.3277 168.81C46.2499 168.948 42.2485 173.29 42.3901 178.51Z" fill="#DF5C32"/>
<path d="M42.976 179.734C38.5636 182.525 32.7379 181.241 29.9638 176.866C27.1898 172.491 28.5179 166.682 32.9303 163.891C37.3427 161.1 43.1685 162.384 45.9425 166.758C48.7166 171.133 47.3884 176.943 42.976 179.734Z" fill="#DF5C32"/>
<path d="M40.6914 176.082C38.2748 177.611 35.0914 176.919 33.5809 174.537C32.0705 172.155 32.805 168.984 35.2216 167.456C37.6382 165.927 40.8216 166.619 42.3321 169.001C43.8425 171.383 43.108 174.553 40.6914 176.082Z" fill="white"/>
<path d="M44.8839 169.291L38.3159 165.426L50.7362 147.009L57.3042 150.874L44.8839 169.291Z" fill="#DF5C32"/>
<path d="M55.7308 175.542L49.1628 171.677L61.5831 153.26L68.1511 157.125L55.7308 175.542Z" fill="#DF5C32"/>
<path d="M32.3272 176.845L32.0696 169.496L12.2516 169.67L12.5091 177.019L32.3272 176.845Z" fill="#DF5C32"/>
<path d="M43.5935 178.383C48.1795 180.878 49.8938 186.592 47.4224 191.145C44.951 195.698 39.23 197.365 34.644 194.87C30.058 192.374 28.3438 186.66 30.8151 182.107C33.2865 177.555 39.0076 175.887 43.5935 178.383Z" fill="#DF5C32"/>
<path d="M41.5154 182.156C44.027 183.523 44.9723 186.64 43.6267 189.119C42.2811 191.598 39.1541 192.5 36.6424 191.133C34.1308 189.766 33.1856 186.648 34.5312 184.17C35.8769 181.691 39.0038 180.789 41.5154 182.156Z" fill="white"/>
<path d="M33.6461 181.702L33.4114 189.09L12.2388 188.912L12.4736 181.524L33.6461 181.702Z" fill="#DF5C32"/>
<path d="M46.8748 189.581L41.2097 192.828L51.9793 208.13L57.6444 204.883L46.8748 189.581Z" fill="#DF5C32"/>
<path d="M57.0719 183.846L51.4067 187.093L62.1763 202.395L67.8414 199.148L57.0719 183.846Z" fill="#DF5C32"/>
<path d="M46.7382 178.106C46.8158 180.964 49.12 183.221 51.8848 183.146C54.6496 183.071 56.828 180.693 56.7504 177.834C56.6728 174.976 54.3686 172.72 51.6038 172.795C48.839 172.87 46.6606 175.248 46.7382 178.106Z" fill="white"/>
<path fill-rule="evenodd" clip-rule="evenodd" d="M82.8773 154.87L44 133.402V90.4674L82.8773 69L121.755 90.4674V133.402L82.8773 154.87Z" stroke="#DF5C32" stroke-width="8.19416" stroke-linecap="round"/>
<path d="M81.3901 112.51C81.5318 117.729 85.763 121.848 90.8407 121.71C95.9185 121.572 99.9199 117.23 99.7783 112.01C99.6366 106.791 95.4054 102.672 90.3277 102.81C85.2499 102.948 81.2485 107.29 81.3901 112.51Z" fill="#DF5C32"/>
<path d="M81.976 113.734C77.5636 116.525 71.7379 115.241 68.9638 110.866C66.1898 106.491 67.5179 100.682 71.9303 97.8909C76.3427 95.0997 82.1685 96.3836 84.9425 100.758C87.7166 105.133 86.3884 110.943 81.976 113.734Z" fill="#DF5C32"/>
<path d="M79.6914 110.082C77.2748 111.611 74.0914 110.919 72.5809 108.537C71.0705 106.155 71.805 102.984 74.2216 101.456C76.6382 99.927 79.8216 100.619 81.3321 103.001C82.8425 105.383 82.108 108.553 79.6914 110.082Z" fill="white"/>
<path d="M83.8839 103.291L77.3159 99.4255L89.7362 81.0086L96.3042 84.8742L83.8839 103.291Z" fill="#DF5C32"/>
<path d="M94.7308 109.542L88.1628 105.677L100.583 87.2596L107.151 91.1252L94.7308 109.542Z" fill="#DF5C32"/>
<path d="M71.3272 110.845L71.0696 103.496L51.2516 103.67L51.5091 111.019L71.3272 110.845Z" fill="#DF5C32"/>
<path d="M82.5935 112.383C87.1795 114.878 88.8938 120.592 86.4224 125.145C83.951 129.698 78.23 131.365 73.644 128.87C69.058 126.374 67.3438 120.66 69.8151 116.107C72.2865 111.555 78.0076 109.887 82.5935 112.383Z" fill="#DF5C32"/>
<path d="M80.5154 116.156C83.027 117.523 83.9723 120.64 82.6267 123.119C81.2811 125.598 78.1541 126.5 75.6424 125.133C73.1308 123.766 72.1856 120.648 73.5312 118.17C74.8769 115.691 78.0038 114.789 80.5154 116.156Z" fill="white"/>
<path d="M72.6461 115.702L72.4114 123.09L51.2388 122.912L51.4736 115.524L72.6461 115.702Z" fill="#DF5C32"/>
<path d="M85.8748 123.581L80.2097 126.828L90.9793 142.13L96.6444 138.883L85.8748 123.581Z" fill="#DF5C32"/>
<path d="M96.0719 117.846L90.4067 121.093L101.176 136.395L106.841 133.148L96.0719 117.846Z" fill="#DF5C32"/>
<path d="M85.7382 112.106C85.8158 114.964 88.12 117.221 90.8848 117.146C93.6496 117.071 95.828 114.693 95.7504 111.834C95.6728 108.976 93.3686 106.72 90.6038 106.795C87.839 106.87 85.6606 109.248 85.7382 112.106Z" fill="white"/>
<path fill-rule="evenodd" clip-rule="evenodd" d="M120.877 219.87L82 198.402V155.467L120.877 134L159.755 155.467V198.402L120.877 219.87Z" stroke="#DF5C32" stroke-width="8.19416" stroke-linecap="round"/>
<path d="M119.39 177.51C119.532 182.729 123.763 186.848 128.841 186.71C133.918 186.572 137.92 182.23 137.778 177.01C137.637 171.791 133.405 167.672 128.328 167.81C123.25 167.948 119.248 172.29 119.39 177.51Z" fill="#DF5C32"/>
<path d="M119.976 178.734C115.564 181.525 109.738 180.241 106.964 175.866C104.19 171.491 105.518 165.682 109.93 162.891C114.343 160.1 120.168 161.384 122.943 165.758C125.717 170.133 124.388 175.943 119.976 178.734Z" fill="#DF5C32"/>
<path d="M117.691 175.082C115.275 176.611 112.091 175.919 110.581 173.537C109.07 171.155 109.805 167.984 112.222 166.456C114.638 164.927 117.822 165.619 119.332 168.001C120.843 170.383 120.108 173.553 117.691 175.082Z" fill="white"/>
<path d="M121.884 168.291L115.316 164.426L127.736 146.009L134.304 149.874L121.884 168.291Z" fill="#DF5C32"/>
<path d="M132.731 174.542L126.163 170.677L138.583 152.26L145.151 156.125L132.731 174.542Z" fill="#DF5C32"/>
<path d="M109.327 175.845L109.07 168.496L89.2516 168.67L89.5091 176.019L109.327 175.845Z" fill="#DF5C32"/>
<path d="M120.594 177.383C125.18 179.878 126.894 185.592 124.422 190.145C121.951 194.698 116.23 196.365 111.644 193.87C107.058 191.374 105.344 185.66 107.815 181.107C110.286 176.555 116.008 174.887 120.594 177.383Z" fill="#DF5C32"/>
<path d="M118.515 181.156C121.027 182.523 121.972 185.64 120.627 188.119C119.281 190.598 116.154 191.5 113.642 190.133C111.131 188.766 110.186 185.648 111.531 183.17C112.877 180.691 116.004 179.789 118.515 181.156Z" fill="white"/>
<path d="M110.646 180.702L110.411 188.09L89.2388 187.912L89.4736 180.524L110.646 180.702Z" fill="#DF5C32"/>
<path d="M123.875 188.581L118.21 191.828L128.979 207.13L134.644 203.883L123.875 188.581Z" fill="#DF5C32"/>
<path d="M134.072 182.846L128.407 186.093L139.176 201.395L144.841 198.148L134.072 182.846Z" fill="#DF5C32"/>
<path d="M123.738 177.106C123.816 179.964 126.12 182.221 128.885 182.146C131.65 182.071 133.828 179.693 133.75 176.834C133.673 173.976 131.369 171.72 128.604 171.795C125.839 171.87 123.661 174.248 123.738 177.106Z" fill="white"/>
<path fill-rule="evenodd" clip-rule="evenodd" d="M118.877 352.87L80 331.402V288.467L118.877 267L157.755 288.467V331.402L118.877 352.87Z" stroke="#DF5C32" stroke-width="8.19416" stroke-linecap="round"/>
<path d="M117.39 310.51C117.532 315.729 121.763 319.848 126.841 319.71C131.918 319.572 135.92 315.23 135.778 310.01C135.637 304.791 131.405 300.672 126.328 300.81C121.25 300.948 117.248 305.29 117.39 310.51Z" fill="#DF5C32"/>
<path d="M117.976 311.734C113.564 314.525 107.738 313.241 104.964 308.866C102.19 304.491 103.518 298.682 107.93 295.891C112.343 293.1 118.168 294.384 120.943 298.758C123.717 303.133 122.388 308.943 117.976 311.734Z" fill="#DF5C32"/>
<path d="M115.691 308.082C113.275 309.611 110.091 308.919 108.581 306.537C107.07 304.155 107.805 300.984 110.222 299.456C112.638 297.927 115.822 298.619 117.332 301.001C118.843 303.383 118.108 306.553 115.691 308.082Z" fill="white"/>
<path d="M119.884 301.291L113.316 297.426L125.736 279.009L132.304 282.874L119.884 301.291Z" fill="#DF5C32"/>
<path d="M130.731 307.542L124.163 303.677L136.583 285.26L143.151 289.125L130.731 307.542Z" fill="#DF5C32"/>
<path d="M107.327 308.845L107.07 301.496L87.2516 301.67L87.5091 309.019L107.327 308.845Z" fill="#DF5C32"/>
<path d="M118.594 310.383C123.18 312.878 124.894 318.592 122.422 323.145C119.951 327.698 114.23 329.365 109.644 326.87C105.058 324.374 103.344 318.66 105.815 314.107C108.286 309.555 114.008 307.887 118.594 310.383Z" fill="#DF5C32"/>
<path d="M116.515 314.156C119.027 315.523 119.972 318.64 118.627 321.119C117.281 323.598 114.154 324.5 111.642 323.133C109.131 321.766 108.186 318.648 109.531 316.17C110.877 313.691 114.004 312.789 116.515 314.156Z" fill="white"/>
<path d="M108.646 313.702L108.411 321.09L87.2388 320.912L87.4736 313.524L108.646 313.702Z" fill="#DF5C32"/>
<path d="M121.875 321.581L116.21 324.828L126.979 340.13L132.644 336.883L121.875 321.581Z" fill="#DF5C32"/>
<path d="M132.072 315.846L126.407 319.093L137.176 334.395L142.841 331.148L132.072 315.846Z" fill="#DF5C32"/>
<path d="M121.738 310.106C121.816 312.964 124.12 315.221 126.885 315.146C129.65 315.071 131.828 312.693 131.75 309.834C131.673 306.976 129.369 304.72 126.604 304.795C123.839 304.87 121.661 307.248 121.738 310.106Z" fill="white"/>
<path fill-rule="evenodd" clip-rule="evenodd" d="M118.877 485.87L80 464.402V421.467L118.877 400L157.755 421.467V464.402L118.877 485.87Z" stroke="#DF5C32" stroke-width="8.19416" stroke-linecap="round"/>
<path d="M117.39 443.51C117.532 448.729 121.763 452.848 126.841 452.71C131.918 452.572 135.92 448.23 135.778 443.01C135.637 437.791 131.405 433.672 126.328 433.81C121.25 433.948 117.248 438.29 117.39 443.51Z" fill="#DF5C32"/>
<path d="M117.976 444.734C113.564 447.525 107.738 446.241 104.964 441.866C102.19 437.491 103.518 431.682 107.93 428.891C112.343 426.1 118.168 427.384 120.943 431.758C123.717 436.133 122.388 441.943 117.976 444.734Z" fill="#DF5C32"/>
<path d="M115.691 441.082C113.275 442.611 110.091 441.919 108.581 439.537C107.07 437.155 107.805 433.984 110.222 432.456C112.638 430.927 115.822 431.619 117.332 434.001C118.843 436.383 118.108 439.553 115.691 441.082Z" fill="white"/>
<path d="M119.884 434.291L113.316 430.426L125.736 412.009L132.304 415.874L119.884 434.291Z" fill="#DF5C32"/>
<path d="M130.731 440.542L124.163 436.677L136.583 418.26L143.151 422.125L130.731 440.542Z" fill="#DF5C32"/>
<path d="M107.327 441.845L107.07 434.496L87.2516 434.67L87.5091 442.019L107.327 441.845Z" fill="#DF5C32"/>
<path d="M118.594 443.383C123.18 445.878 124.894 451.592 122.422 456.145C119.951 460.698 114.23 462.365 109.644 459.87C105.058 457.374 103.344 451.66 105.815 447.107C108.286 442.555 114.008 440.887 118.594 443.383Z" fill="#DF5C32"/>
<path d="M116.515 447.156C119.027 448.523 119.972 451.64 118.627 454.119C117.281 456.598 114.154 457.5 111.642 456.133C109.131 454.766 108.186 451.648 109.531 449.17C110.877 446.691 114.004 445.789 116.515 447.156Z" fill="white"/>
<path d="M108.646 446.702L108.411 454.09L87.2388 453.912L87.4736 446.524L108.646 446.702Z" fill="#DF5C32"/>
<path d="M121.875 454.581L116.21 457.828L126.979 473.13L132.644 469.883L121.875 454.581Z" fill="#DF5C32"/>
<path d="M132.072 448.846L126.407 452.093L137.176 467.395L142.841 464.148L132.072 448.846Z" fill="#DF5C32"/>
<path d="M121.738 443.106C121.816 445.964 124.12 448.221 126.885 448.146C129.65 448.071 131.828 445.693 131.75 442.834C131.673 439.976 129.369 437.72 126.604 437.795C123.839 437.87 121.661 440.248 121.738 443.106Z" fill="white"/>
</svg>
