<svg viewBox="0 0 30 21" fill="none" xmlns="http://www.w3.org/2000/svg">
<path fill-rule="evenodd" clip-rule="evenodd" d="M4.50281 0.135071C4.32345 1.30533 3.77378 2.36885 2.95031 3.13884C2.12683 3.90884 1.08221 4.33604 0 4.34541L5.77621 19.7253L9.63393 13.7974L4.50281 0.135071Z" fill="#DF5C32"/>
<path fill-rule="evenodd" clip-rule="evenodd" d="M25.0954 0L19.7317 14.2821L23.5894 20.21L29.4163 4.69515C28.2985 4.62278 27.243 4.10608 26.4477 3.24181C25.6523 2.37754 25.1715 1.22498 25.0954 0Z" fill="#DF5C32"/>
<path fill-rule="evenodd" clip-rule="evenodd" d="M12.7775 0.758179L5.68164 14.2138L9.68494 18.5948L15.1607 8.21139C15.1027 8.21868 15.0445 8.22254 14.9861 8.22296C14.5364 8.22291 14.1051 8.01872 13.7871 7.65528C13.4691 7.29183 13.2905 6.79892 13.2905 6.28496C13.2905 5.77099 13.4691 5.27807 13.7871 4.91462C14.1051 4.55118 14.5364 4.34698 14.9861 4.34693C15.3243 4.34698 15.6546 4.46254 15.9348 4.67878C16.2151 4.89502 16.4323 5.20208 16.5587 5.56049L16.781 5.13885L12.7775 0.758179Z"/>
<path fill-rule="evenodd" clip-rule="evenodd" d="M16.7506 1.56567L12.7473 5.94667L19.8436 19.4026L23.847 15.0216L16.7506 1.56567ZM14.9863 4.26632C15.209 4.2663 15.4296 4.31641 15.6353 4.4138C15.8411 4.51119 16.028 4.65394 16.1855 4.8339C16.343 5.01387 16.4679 5.22751 16.5532 5.46265C16.6384 5.6978 16.6822 5.94983 16.6822 6.20434C16.6822 6.45886 16.6383 6.71089 16.5531 6.94603C16.4679 7.18117 16.343 7.39482 16.1855 7.57479C16.028 7.75475 15.8411 7.8975 15.6353 7.99489C15.4296 8.09227 15.209 8.14239 14.9863 8.14237C14.5366 8.14232 14.1053 7.9381 13.7873 7.57466C13.4693 7.21122 13.2907 6.71831 13.2907 6.20434C13.2907 5.69038 13.4693 5.19746 13.7873 4.83401C14.1053 4.47056 14.5366 4.26637 14.9863 4.26632Z"/>
</svg>
